<?xml version="1.0" encoding="utf-8"?>
<!DOCTYPE svg PUBLIC "-//W3C//DTD SVG 1.0//EN" "http://www.w3.org/TR/2001/REC-SVG-20010904/DTD/svg10.dtd">
<svg version="1.0" xmlns="http://www.w3.org/2000/svg" width="1024px" height="1024px" viewBox="0 0 1024 1024" preserveAspectRatio="xMidYMid meet">
 <g fill="#000000">
  <path d="M490 814.9 c-45.5 -4.9 -89.4 -20.7 -126.5 -45.2 -27 -17.9 -49.6 -39.2 -68.1 -63.9 -19.3 -26 -35.4 -57.8 -43.8 -86.8 -3.2 -10.7 -7.3 -28.6 -7.4 -32 -0.1 -0.8 -0.5 -3.5 -1.1 -6 -2 -9.5 -3.4 -33.4 -2.8 -50.3 1.6 -50.8 16.7 -97 45.2 -138.8 l7.3 -10.7 -1.8 -6.5 c-5.9 -21.1 -7.2 -49.6 -3.1 -65.2 7 -26.8 24.5 -44.2 51.7 -51.7 10.7 -2.9 40.8 -3.2 55.4 -0.5 23.3 4.3 47 12.3 64.7 21.7 l9.2 4.9 8.3 -1.4 c4.6 -0.8 9.5 -1.5 11.1 -1.5 1.5 0 2.7 -0.3 2.7 -0.6 0 -0.4 -2.5 -5.8 -5.6 -12.2 -5.4 -11.2 -13.9 -25.6 -41.8 -71 -7.5 -12.3 -14.2 -23.5 -14.9 -25 -0.6 -1.5 -1.7 -3.2 -2.3 -3.9 -0.7 -0.7 -3.6 -6.1 -6.5 -11.9 -4.6 -9.2 -5.3 -11.6 -5.4 -16.6 0 -5.2 0.3 -6.1 3.2 -8.9 6.2 -6.3 17.4 -4.4 20.7 3.3 0.8 1.8 2.6 6.6 4.1 10.5 1.5 4 7.1 14.6 12.4 23.5 5.4 9 16.7 27.8 25.2 41.9 8.5 14 19 32.8 23.4 41.6 4.4 8.9 8.3 16.2 8.7 16.2 0.3 0.1 2.1 -2.5 3.8 -5.6 5.3 -9.4 16.3 -25.2 24 -34.3 4 -4.7 17.4 -19.3 30 -32.5 41.1 -43.3 50.6 -56.4 53.1 -73.9 1.3 -9.6 7.4 -15.5 14.6 -14.1 8.2 1.5 12.2 9.8 10.4 21.6 -3.7 23.6 -16.7 42.5 -64.6 93.4 -7.2 7.7 -16.3 17.7 -20.2 22.1 -8.1 9.3 -21.3 26.6 -21.3 27.9 0 0.5 1.9 -0.9 4.3 -3.2 15.8 -15.2 40.2 -28.4 66.2 -35.9 19.4 -5.6 32.3 -7.5 56.1 -8.1 27 -0.7 31.7 -0.2 36.1 4.2 2.7 2.7 3.3 4.1 3.3 7.6 0 6.1 -2.9 10.5 -7.7 11.8 -2.1 0.5 -11.2 1 -20.3 1 -16.6 0 -32.4 1.6 -44.3 4.6 -19.3 4.9 -42.4 14.7 -56.1 23.8 -6 4.1 -6.6 4.7 -4.5 5.1 34.7 6.8 67.5 20.5 97.4 40.5 40.1 26.7 68.1 58.3 89.5 101 19.9 39.8 28.4 75.9 28.4 120.6 -0.1 45.8 -10.9 90.1 -31.9 130.3 -12.8 24.5 -27.8 44.5 -48.6 64.7 -41.8 40.6 -88.5 63.2 -150.4 72.7 -15 2.3 -55.3 3.3 -69.5 1.7z m41.9 -29.9 c66.1 -4.5 121.8 -30 166.8 -76.3 35.5 -36.5 54.6 -75.9 63 -129.7 2.6 -16.5 2.6 -59.9 0 -75.5 -7.2 -43.2 -22.3 -77.2 -49.4 -111 -8.6 -10.7 -25.4 -27.5 -36.9 -36.7 -21.2 -17.2 -51.2 -33.8 -76.4 -42.2 -14.6 -4.9 -35.8 -9.7 -51.3 -11.6 -11.3 -1.4 -42.6 -0.8 -50 1 l-4.9 1.2 10.4 10.7 c20.9 21.3 35.5 43.2 44.2 66.5 3.6 9.4 6.6 24.9 6.6 33.8 0.1 5.9 0.3 6.9 1.2 5.3 14.1 -25.6 41.4 -44.9 70.2 -49.6 10.1 -1.6 27.8 -0.7 38.1 2 10.9 2.8 26.9 10.9 35.7 18 16.3 13.1 27.3 32 32.6 56 1.2 5.4 1.7 12.3 1.7 24.1 0 14.1 -0.4 17.8 -2.4 25.5 -3.3 12.8 -9.8 25 -18.3 34 -12.2 13.1 -25.6 20.4 -45 24.6 -13.7 2.9 -32.7 2.3 -46.6 -1.5 -32.4 -9 -57.9 -32.6 -68.1 -63.1 -3 -9.2 -5.7 -25 -4.8 -28.6 0.9 -3.3 -0.7 -2.1 -3.8 2.9 -1.6 2.6 -7 8.8 -12 13.8 -14.7 14.8 -30.3 23 -51.6 27.4 -9.1 1.9 -12.5 2.1 -27.4 1.7 -22.4 -0.7 -36 -3.9 -58.5 -13.6 -21.6 -9.3 -37.6 -20.6 -57 -40 -12.1 -12.2 -15.9 -16.8 -23 -27.8 -4.7 -7.3 -8.7 -13.2 -9 -13.2 -0.3 -0.1 -2.9 3.8 -5.7 8.7 -14.5 24.4 -24.1 52.2 -29 84.2 -2.5 16.3 -2.5 55.9 0 72 8 51.8 29.8 94.9 66.7 132.1 43.3 43.7 100.2 70.5 159 74.8 15.4 1.2 19 1.2 34.9 0.1z m134.6 -252 c17 -5.2 29.6 -15.9 37.4 -31.7 5.1 -10.3 6.5 -17.3 6.5 -33.3 0.1 -16.8 -1.2 -23 -7.3 -35.5 -9.6 -19.5 -25.5 -32.4 -46.4 -37.7 -11.4 -2.9 -29.1 -2.2 -39.4 1.4 -14.2 5.1 -28.4 17 -35.8 30.2 -1.9 3.4 -3.5 6.6 -3.5 7 0 0.4 1.5 -0.9 3.4 -2.7 6.2 -6.2 11.7 -8.2 23.1 -8.2 9.3 0 10.5 0.2 16.7 3.3 6.1 3 15.8 11.8 15.8 14.3 0 0.4 -1.7 0.1 -3.7 -0.8 -8.5 -3.5 -17.3 1.4 -17.3 9.8 0 6.3 3.3 11.7 8.7 14.1 6.7 2.9 13.1 0.7 15.8 -5.5 1.4 -3.1 1.4 -2.9 1.5 4.4 0 4.1 -0.7 9.8 -1.5 12.7 -4.3 14.5 -21.5 25.4 -37.7 23.9 -11 -1 -23.2 -8.9 -28 -18 -3.5 -6.8 -3 -3.3 1 6.5 10 25 31.2 42 58.7 47.4 9.3 1.8 23.1 1.1 32 -1.6z m-186.7 -51.5 c3.9 -0.9 7.2 -2 7.2 -2.5 0 -0.4 -2.2 -1 -4.9 -1.4 -13.2 -1.7 -32.6 -11.3 -46 -22.7 -14.8 -12.6 -27.6 -31.7 -33.1 -49.4 -2.2 -7.2 -3.1 -20.8 -1.6 -25.3 2.3 -7.1 29.4 -11.7 44.9 -7.7 10.9 2.8 23.1 10.2 33.9 20.4 6.7 6.2 9.4 10.3 4.2 6.2 -4.3 -3.4 -9.7 -4.4 -13.8 -2.7 -4.4 1.8 -6 4.8 -6 11.1 -0.1 16.1 17.7 26.3 26.9 15.4 1.4 -1.7 2.5 -4.1 2.5 -5.5 0 -3.6 1.5 -2.9 4.8 2.4 7.9 12.2 12.8 28.3 11.9 39.5 l-0.4 6.8 3.5 -3.3 c15.8 -15 20.9 -42.6 12.7 -68.6 -10.8 -34.1 -46.4 -73.2 -85.6 -94.1 -16.6 -8.8 -36.2 -15.6 -52.4 -18.2 -11 -1.7 -33.6 -1.7 -40.5 0 -29.8 7.4 -42.8 36.3 -34.5 76.6 6.6 31.8 27.9 66.6 54.6 89 25 21 51.4 32.9 79.4 35.9 7.7 0.8 25 -0.2 32.3 -1.9z"/>
  <path d="M519.8 749 c-41.7 -3.1 -79.3 -15.8 -114.3 -38.8 -40.9 -26.8 -71 -66 -86 -111.7 -12.6 -38.6 -15.4 -94.7 -4.8 -98.2 0.6 -0.2 6.1 5.4 12.2 12.5 38.3 44.9 82.3 71.5 142.4 86.2 31.4 7.7 48.1 9.5 89.7 9.5 30.8 0 36.2 -0.3 50 -2.3 37.7 -5.6 74.7 -15.9 103.5 -28.7 15.2 -6.8 20.2 -7.8 23.4 -4.6 4.8 4.8 2 11.1 -18.4 41.3 -15.1 22.3 -25.7 36.5 -37.6 50.3 -8.4 9.8 -29.3 30.6 -37.6 37.4 -4.5 3.6 -5.3 4.8 -5.3 7.6 0 4.6 -1.9 13.4 -3.7 16.9 -2.1 4.1 -6.9 8.3 -13.3 11.6 -6.4 3.2 -12.3 4.6 -28 6.5 -6.3 0.8 -16.4 2.1 -22.5 2.9 -14.7 2 -35.4 2.6 -49.7 1.6z m79.3 -22.3 c7.9 -2 13.2 -4.1 14.6 -5.9 0.7 -0.9 1.4 -17.3 1.8 -47.7 l0.8 -46.4 -2.4 0.6 c-9.3 2.3 -38.8 6.5 -58.5 8.2 l-7 0.7 -0.2 42.1 c-0.1 23.2 0.2 43.6 0.6 45.2 1.4 5.2 3.6 5.6 24.7 5.2 12.9 -0.3 21.1 -1 25.6 -2z m-106.6 -32 c1.3 -2.1 1.5 -6.9 1.3 -33.2 l-0.3 -30.8 -18 -3.8 c-16.9 -3.5 -37.5 -8.9 -47.2 -12.3 l-4.3 -1.5 0 36.3 c0 33.6 0.1 36.5 1.8 38.6 1.7 2 4.2 2.6 27.3 5.5 14 1.8 28.2 3.3 31.6 3.4 5.5 0.1 6.4 -0.2 7.8 -2.2z"/>
 </g>
</svg>