<?xml version="1.0" standalone="no"?>
<!DOCTYPE svg PUBLIC "-//W3C//DTD SVG 20010904//EN"
 "http://www.w3.org/TR/2001/REC-SVG-20010904/DTD/svg10.dtd">
<svg version="1.0" xmlns="http://www.w3.org/2000/svg"
 width="1024.000000pt" height="1024.000000pt" viewBox="0 0 1024.000000 1024.000000"
 preserveAspectRatio="xMidYMid meet">

<g transform="translate(0.000000,1024.000000) scale(0.100000,-0.100000)"
fill="#000000" stroke="none">
<path d="M6425 9680 c-369 -81 -853 -191 -1470 -335 -929 -216 -2497 -619
-2620 -674 -54 -24 -114 -78 -173 -156 -25 -33 -166 -213 -312 -400 -572 -730
-581 -743 -588 -861 -3 -41 2 -80 13 -116 18 -56 25 -70 179 -349 l97 -176
-22 -119 c-25 -140 -22 -243 11 -347 19 -61 165 -413 334 -806 62 -143 66
-156 55 -188 -6 -19 -9 -65 -7 -101 4 -58 14 -88 75 -217 79 -167 142 -311
310 -715 63 -151 125 -294 138 -317 64 -108 234 -203 408 -228 26 -4 49 -11
52 -15 3 -4 77 -212 165 -461 306 -866 403 -1134 425 -1179 69 -138 193 -181
414 -145 l111 18 122 -47 c68 -25 247 -91 398 -146 151 -56 536 -196 855 -313
l580 -212 85 0 c134 0 134 0 540 399 513 505 1476 1472 1741 1749 240 251 318
344 346 415 19 51 23 34 -115 472 -96 304 -172 556 -202 664 l-22 79 26 66
c14 37 56 107 92 156 37 50 74 106 82 125 27 63 19 141 -32 315 -99 339 -371
1453 -546 2235 -144 645 -191 852 -207 899 -24 74 -79 141 -146 175 -72 37
-129 42 -247 22 -56 -10 -96 -13 -98 -7 -11 32 -385 658 -439 736 -35 49 -106
99 -163 115 -52 14 -154 10 -245 -10z m202 -362 c31 -53 265 -468 354 -628 26
-47 57 -104 70 -127 13 -24 29 -43 34 -43 6 0 91 16 190 35 155 30 182 32 191
20 6 -8 41 -137 77 -287 37 -150 140 -569 229 -930 89 -362 159 -660 156 -664
-4 -3 -25 0 -48 8 l-41 13 -139 550 c-76 303 -175 703 -221 890 -45 187 -85
343 -89 348 -5 6 -287 -39 -366 -59 -18 -5 -31 11 -91 118 -108 192 -363 630
-385 661 -11 15 -27 27 -36 27 -9 0 -199 -43 -422 -96 -1323 -312 -1895 -451
-2885 -701 -297 -75 -571 -143 -609 -152 l-69 -16 -86 -115 c-537 -723 -659
-888 -673 -908 -15 -22 -13 -28 36 -120 29 -53 83 -157 120 -231 l68 -134 -35
-161 c-20 -88 -44 -202 -53 -251 l-17 -91 86 -214 c47 -118 140 -341 207 -495
142 -325 157 -364 143 -373 -5 -4 -25 -20 -43 -35 l-33 -28 26 -47 c41 -78 42
-88 7 -100 -36 -13 -45 -3 -86 98 l-25 63 41 42 41 42 -49 114 c-27 63 -96
218 -152 344 -56 127 -134 304 -172 395 -80 191 -78 149 -23 468 l33 193 -95
177 c-53 97 -113 208 -134 245 l-39 69 22 31 c20 29 73 98 273 357 148 193
331 438 425 570 56 80 106 149 110 153 12 13 1525 398 2340 595 491 119 1781
428 1800 431 3 1 20 -23 37 -51z m-394 -1460 c20 -62 73 -227 117 -367 43
-139 81 -255 83 -257 2 -2 39 5 83 15 93 23 154 35 154 30 0 -2 36 -128 79
-279 l79 -275 -181 -6 c-201 -7 -292 -18 -472 -55 -264 -56 -556 -146 -848
-263 -162 -65 -236 -102 -314 -157 -69 -50 -94 -84 -118 -166 -14 -51 -20 -58
-42 -58 -81 0 -388 -86 -540 -151 l-46 -19 -47 44 c-137 129 -388 105 -967
-89 -289 -97 -416 -146 -544 -211 -51 -25 -95 -42 -99 -37 -8 9 -195 553 -195
567 0 5 58 29 129 52 152 51 169 61 198 117 28 53 36 213 19 368 l-12 104 103
101 c119 116 208 179 368 259 256 129 550 214 935 270 153 23 200 34 315 77
142 53 339 137 451 194 90 45 184 70 599 160 340 73 658 141 671 143 3 1 22
-50 42 -111z m539 -1256 c41 -16 76 -71 114 -179 67 -185 216 -678 221 -731 6
-53 6 -53 -42 -99 -83 -79 -276 -158 -642 -264 -383 -110 -630 -159 -801 -159
-92 0 -114 4 -157 24 -79 37 -136 108 -218 272 -25 50 -53 113 -62 141 -14 42
-21 52 -44 56 -22 5 -33 17 -49 56 -34 77 -52 168 -52 261 0 146 38 194 215
279 336 161 867 314 1219 351 98 10 261 6 298 -8z m999 -29 c8 -8 -74 -133
-87 -133 -2 0 -11 26 -20 58 -8 31 -18 66 -21 76 -5 18 -1 19 57 13 34 -3 66
-9 71 -14z m138 -130 c84 -271 321 -1113 321 -1143 0 -14 -51 -102 -118 -204
-66 -100 -131 -202 -146 -228 -31 -56 -33 -58 -69 -51 -44 9 -49 23 -153 438
-36 143 -83 322 -105 397 -30 101 -38 142 -30 155 5 10 50 58 99 106 l89 89
-19 71 c-11 40 -30 110 -44 157 -13 46 -24 94 -24 105 0 12 26 57 58 101 31
43 65 91 75 107 10 15 19 27 22 27 2 0 22 -57 44 -127z m-545 97 c60 -6 117
-10 126 -10 21 0 40 -40 40 -85 l0 -35 -57 1 c-32 1 -109 6 -172 13 l-114 11
-12 35 c-7 19 -15 47 -19 63 l-6 27 52 -5 c29 -3 102 -10 162 -15z m-17 -192
c9 -11 107 -327 172 -553 11 -38 52 -203 91 -365 106 -443 271 -1073 473
-1810 19 -69 37 -137 41 -152 6 -25 2 -28 -82 -63 -442 -186 -2413 -883 -3022
-1068 -372 -114 -1124 -311 -1162 -305 -64 9 -326 653 -695 1703 -52 149 -110
314 -130 368 -21 57 -32 102 -27 107 5 5 47 18 94 30 239 61 606 200 860 327
90 45 166 81 167 79 1 -1 -2 -18 -7 -37 -27 -94 -1 -177 79 -252 94 -88 98
-81 32 51 -79 155 -79 196 3 264 48 41 108 146 125 223 40 181 51 603 19 746
-9 39 278 126 446 135 l101 5 87 -178 c141 -287 264 -455 375 -509 128 -63
408 -35 921 91 484 120 834 267 929 392 49 64 38 134 -92 593 -24 85 -47 163
-50 173 -7 16 3 17 118 17 88 0 127 -4 134 -12z m-3269 -511 c46 -30 81 -90
139 -241 39 -101 42 -171 10 -235 -22 -45 -21 -104 4 -226 38 -188 24 -277
-56 -342 -122 -101 -595 -287 -958 -378 -118 -30 -162 -36 -214 -33 -61 4 -68
7 -95 38 -40 48 -157 356 -306 804 l-47 139 44 38 c112 100 564 290 951 399
197 56 276 70 386 67 91 -2 104 -5 142 -30z m-1448 -1045 c39 -101 78 -205 87
-233 16 -48 12 -72 -7 -53 -26 26 -184 459 -174 476 11 17 20 -2 94 -190z
m-175 53 c29 -114 91 -296 129 -378 53 -116 103 -164 229 -216 53 -23 57 -35
36 -130 -13 -63 -13 -66 9 -67 58 -3 68 -5 80 -13 13 -8 42 -131 42 -175 0
-17 -6 -18 -52 -13 -71 7 -162 42 -202 78 -42 36 -69 93 -196 414 -57 143
-127 320 -156 394 -30 74 -53 135 -51 136 1 0 25 13 52 27 28 15 53 24 56 20
3 -4 14 -38 24 -77z m5756 -546 c89 -277 162 -516 163 -532 1 -19 -17 -51 -64
-112 -36 -46 -68 -85 -72 -85 -12 0 -212 628 -322 1010 -46 161 -45 176 3 150
27 -14 72 8 103 50 12 16 23 28 25 26 2 -2 76 -230 164 -507z m-507 -1317
c-106 -103 -473 -465 -817 -804 -344 -340 -630 -618 -636 -618 -10 0 -689 227
-876 293 -108 38 -316 123 -453 184 -87 40 -120 59 -109 64 8 5 223 78 478
163 255 84 554 185 664 224 268 94 699 249 741 267 19 8 34 12 34 10 0 -7
-104 -291 -189 -513 -45 -116 -81 -214 -81 -217 0 -10 38 -4 48 8 23 28 84
159 212 457 l135 315 330 119 c406 146 663 233 695 234 8 1 -71 -83 -176 -186z"/>
<path d="M5660 7064 c-123 -19 -272 -58 -385 -101 -84 -32 -399 -188 -437
-217 -16 -12 -14 -25 25 -193 l42 -180 77 48 c522 324 917 466 1373 494 55 3
111 9 125 12 23 4 21 7 -25 30 -209 108 -517 149 -795 107z"/>
<path d="M3880 6350 c-540 -80 -879 -234 -1071 -489 -27 -35 -48 -66 -46 -67
2 -2 68 23 148 55 337 139 694 213 1102 229 l168 7 -70 143 c-52 105 -75 142
-88 141 -10 -1 -74 -9 -143 -19z"/>
<path d="M5484 6265 c-159 -120 -255 -267 -278 -425 l-6 -45 44 75 c59 100
187 282 260 370 32 39 57 72 55 75 -3 2 -36 -20 -75 -50z"/>
<path d="M5913 6020 c-242 -26 -483 -123 -615 -250 -75 -72 -94 -116 -35 -80
38 24 51 25 43 5 -32 -85 513 2 877 141 131 50 292 136 273 146 -23 13 -322
48 -399 47 -40 -1 -105 -5 -144 -9z m332 -79 c17 -7 13 -12 -32 -35 -78 -39
-103 -33 -103 25 0 17 7 19 58 18 31 0 66 -4 77 -8z m-622 -150 c6 -32 5 -46
-4 -52 -24 -14 -249 -40 -249 -28 0 27 186 132 225 127 14 -2 22 -14 28 -47z"/>
<path d="M6262 5629 c-106 -42 -345 -87 -507 -95 -146 -8 -324 18 -492 71 -18
6 -23 3 -23 -9 0 -25 132 -84 231 -102 115 -23 298 -14 456 22 120 26 308 85
353 110 28 15 17 17 -18 3z"/>
<path d="M7744 5520 c8 -25 43 -174 52 -217 5 -26 26 -30 43 -9 6 8 14 36 17
62 7 61 -14 103 -76 153 -41 34 -43 35 -36 11z"/>
<path d="M5542 4969 c19 -25 23 -44 23 -98 0 -59 -4 -74 -37 -129 -34 -57 -40
-92 -17 -92 18 0 101 84 120 121 47 94 30 176 -43 209 -62 28 -73 25 -46 -11z"/>
<path d="M6026 4925 c145 -23 297 -61 584 -147 141 -42 198 -66 219 -92 9 -10
17 -96 27 -263 23 -403 26 -440 34 -418 18 48 32 282 28 470 -4 226 -9 244
-78 294 -113 82 -534 173 -788 170 l-107 -1 81 -13z"/>
<path d="M5239 4776 c-121 -35 -239 -126 -239 -185 0 -39 19 -49 39 -22 30 40
239 79 268 50 8 -8 19 -6 41 5 66 34 92 105 52 141 -25 23 -101 28 -161 11z"/>
<path d="M6450 4615 c-371 -77 -733 -205 -1220 -433 -116 -54 -247 -105 -355
-137 -334 -100 -497 -165 -810 -323 l-190 -96 35 -14 c153 -62 499 -65 802 -6
478 93 1132 368 1528 642 119 83 318 249 353 295 32 42 45 87 26 87 -8 0 -23
2 -34 5 -11 2 -72 -7 -135 -20z m-223 -167 c43 -40 26 -87 -53 -141 l-54 -38
-16 36 c-8 20 -23 58 -34 85 l-20 50 48 14 c68 21 102 19 129 -6z m-206 -104
c51 -115 54 -106 -51 -159 -51 -25 -93 -45 -95 -43 -3 4 -75 181 -78 193 -2
10 148 74 176 75 12 0 27 -20 48 -66z m-264 -101 c20 -43 36 -93 37 -111 1
-33 -1 -35 -97 -78 -54 -25 -102 -42 -107 -39 -5 3 -12 20 -16 38 -3 17 -19
64 -34 104 -23 60 -26 74 -14 83 18 15 165 80 182 80 7 0 29 -35 49 -77z
m-278 -147 c22 -51 41 -100 41 -107 0 -22 -306 -148 -320 -132 -16 18 -73 197
-64 200 5 2 72 34 149 72 77 37 143 67 146 65 4 -2 25 -46 48 -98z m-386 -171
c19 -49 32 -93 29 -96 -14 -13 -291 -92 -304 -87 -22 9 -102 168 -90 180 14
14 315 106 323 99 4 -3 23 -46 42 -96z m-451 -52 c16 -20 82 -163 77 -167 -2
-2 -51 -15 -109 -29 -81 -20 -107 -23 -116 -14 -22 24 -65 140 -55 150 8 8
169 76 182 77 3 0 13 -8 21 -17z m-247 -170 c35 -77 34 -83 -21 -83 -60 0
-124 65 -102 103 11 21 69 58 81 54 5 -1 24 -35 42 -74z"/>
<path d="M4515 4530 c-42 -9 -75 -27 -112 -63 -40 -37 -42 -70 -8 -93 30 -19
70 -16 170 15 55 17 83 20 133 15 42 -4 62 -3 62 4 0 18 -60 82 -92 98 -39 20
-115 32 -153 24z"/>
<path d="M3918 4087 c-69 -93 -185 -280 -224 -360 -48 -102 -52 -148 -21 -225
35 -89 97 -194 222 -382 131 -195 239 -342 243 -330 4 12 -29 76 -201 385
-197 355 -211 384 -204 442 3 31 43 123 126 289 66 134 117 244 113 244 -4 -1
-28 -29 -54 -63z"/>
<path d="M3705 5775 c17 -7 50 -21 75 -31 25 -11 107 -56 183 -101 77 -46 143
-80 149 -77 23 14 -134 145 -211 176 -49 19 -166 48 -196 47 l-30 0 30 -14z"/>
<path d="M3740 5500 c-153 -32 -272 -91 -438 -216 -91 -69 -242 -202 -242
-214 0 -11 47 5 68 22 7 6 57 13 110 14 145 3 344 51 570 135 195 74 362 163
362 193 0 27 -48 57 -116 71 -92 19 -210 18 -314 -5z m348 -55 c10 -9 -9 -36
-33 -47 -29 -13 -39 -6 -49 36 l-7 29 43 -7 c23 -4 44 -9 46 -11z m-571 -203
c3 -12 0 -29 -6 -36 -13 -16 -116 -36 -182 -36 l-44 1 35 29 c19 16 64 45 100
64 60 33 66 34 78 18 7 -9 15 -27 19 -40z"/>
<path d="M4090 5284 c-66 -67 -212 -189 -291 -241 -38 -25 -68 -48 -66 -50 7
-7 120 37 175 69 99 56 243 219 230 259 -2 5 -23 -11 -48 -37z"/>
</g>
</svg>
